HIERARCHY
ROOT Hips
{
	OFFSET -10.056300 7.733760 -472.550000
	CHANNELS 6 Xposition Yposition Zposition Zrotation Yrotation Xrotation 
	JOINT Spine
	{
		OFFSET 0.000000 0.000000 0.000000
		CHANNELS 3 Zrotation Yrotation Xrotation
		JOINT Spine1
		{
			OFFSET 19.000000 0.000000 0.000000
			CHANNELS 3 Zrotation Yrotation Xrotation
			JOINT Neck
			{
				OFFSET 22.500000 0.600000 0.000000
				CHANNELS 3 Zrotation Yrotation Xrotation
				JOINT Head
				{
					OFFSET 14.000000 0.030878 0.000000
					CHANNELS 3 Zrotation Yrotation Xrotation
					End Site
					{
						OFFSET 17.000000 0.000000 0.000000
					}
				}
			}
			JOINT LeftShoulder
			{
				OFFSET 19.800000 3.700000 4.300000
				CHANNELS 3 Zrotation Yrotation Xrotation
				JOINT LeftArm
				{
					OFFSET 8.000000 0.000000 0.000000
					CHANNELS 3 Zrotation Yrotation Xrotation
					JOINT LeftForeArm
					{
						OFFSET 15.200000 0.000000 0.000000
						CHANNELS 3 Zrotation Yrotation Xrotation
						JOINT LeftHand
						{
							OFFSET 17.800000 0.000000 0.000000
							CHANNELS 3 Zrotation Yrotation Xrotation
							End Site
							{
								OFFSET 7.200000 0.000000 0.000000
							}
						}
					}
				}
			}
			JOINT RightShoulder
			{
				OFFSET 19.800000 3.700000 -4.300000
				CHANNELS 3 Zrotation Yrotation Xrotation
				JOINT RightArm
				{
					OFFSET 8.000000 0.000000 0.151654
					CHANNELS 3 Zrotation Yrotation Xrotation
					JOINT RightForeArm
					{
						OFFSET 15.200000 0.000000 0.000000
						CHANNELS 3 Zrotation Yrotation Xrotation
						JOINT RightHand
						{
							OFFSET 17.800000 0.000000 0.000000
							CHANNELS 3 Zrotation Yrotation Xrotation
							End Site
							{
								OFFSET 7.200000 0.000000 0.000000
							}
						}
					}
				}
			}
		}
	}
	JOINT LeftUpLeg
	{
		OFFSET 5.984250 -7.666000 4.788790
		CHANNELS 3 Zrotation Yrotation Xrotation
		JOINT LeftLeg
		{
			OFFSET 16.000000 0.000000 0.000000
			CHANNELS 3 Zrotation Yrotation Xrotation
			JOINT LeftFoot
			{
				OFFSET 18.000000 0.000000 0.000000
				CHANNELS 3 Zrotation Yrotation Xrotation
				End Site
				{
					OFFSET 0.000000 -10.800000 0.000000
				}
			}
		}
	}
	JOINT RightUpLeg
	{
		OFFSET 5.984250 -7.665980 -4.788790
		CHANNELS 3 Zrotation Yrotation Xrotation
		JOINT RightLeg
		{
			OFFSET 16.000000 0.000000 0.000000
			CHANNELS 3 Zrotation Yrotation Xrotation
			JOINT RightFoot
			{
				OFFSET 18.000000 0.000000 0.000000
				CHANNELS 3 Zrotation Yrotation Xrotation
				End Site
				{
					OFFSET 0.000000 -10.800000 0.000000
				}
			}
		}
	}
	JOINT Tail
	{
		OFFSET 6.836960 -0.722574 0.000000
		CHANNELS 3 Zrotation Yrotation Xrotation
		JOINT Tail1
		{
			OFFSET 12.000000 0.000000 0.000000
			CHANNELS 3 Zrotation Yrotation Xrotation
			End Site
			{
				OFFSET 12.000000 0.000000 0.000000
			}
		}
	}
}
MOTION
Frames: 5
Frame Time: 0.033333
-0.623401 -0.586290 -4.724699 12.055965 -53.812527 -0.905993 -176.461334 12.497377 5.039340 -7.911363 14.736163 1.115691 1.151554 3.683797 -14.534978 -2.032609 19.246447 115.092957 48.184696 -29.873743 -137.097015 -79.609306 -51.793709 -150.255554 -71.551781 11.222626 15.522550 -29.241726 -10.011679 -2.346191 44.012165 35.536308 -68.808861 57.671455 -54.133732 61.158051 35.435581 -59.422409 -63.429859 5.373987 -17.882233 -3.397514 -102.015701 -10.641732 28.621502 61.425144 36.070366 74.485474 171.174820 -50.591534 -99.279518 -141.019257 3.968635 9.517760 80.618607 2.700427 -14.778664 57.186691 -14.249567 6.482469 -20.560684 -8.915956 -103.719757 -12.790536 -4.527090 -97.866493 
-1.086624 -0.871348 -9.305252 13.863090 -56.620132 -1.207766 -175.996689 13.594824 4.631258 -12.055162 11.689691 1.340547 4.427047 3.647415 -13.371122 -0.574990 18.046141 115.189552 45.731216 -29.965767 -134.913544 -88.179489 -50.068745 -150.818649 -74.933006 13.708163 17.523041 -30.256578 -12.020329 -2.354809 40.138969 34.349407 -69.511810 57.348869 -51.507870 52.102837 26.464111 -72.795059 -47.049038 9.525725 -10.209717 -5.911968 -97.805527 -13.391538 25.325396 62.685650 35.633308 74.186325 174.714630 -48.263714 -100.778564 -140.565811 4.203026 10.067692 82.286179 4.104624 -16.995310 48.984810 -15.146773 8.263061 -20.677263 -2.017706 -98.713272 -11.013100 -1.350874 -107.192741 
-1.430264 -0.560390 -13.786878 17.744955 -59.930767 -3.905076 -176.561371 15.376952 4.204586 -13.417910 6.433214 2.604933 7.174949 3.796895 -11.907134 0.773807 17.235060 114.978333 45.398155 -29.459530 -134.475235 -94.603111 -48.751293 -151.835892 -76.709160 17.839447 18.250668 -27.087912 -10.812254 -4.567879 36.719170 34.550442 -68.950562 52.095036 -50.284843 46.347530 -68.263855 -81.817551 61.676529 11.640035 -2.977086 -7.573540 -95.004272 -16.556374 21.923143 66.124939 33.854935 75.731834 178.847427 -44.194252 -102.493103 -142.787354 3.578374 9.253392 82.286652 4.976773 -19.331703 38.813602 -17.277308 9.364951 -22.356415 4.060147 -94.409805 -8.849302 0.273149 -116.616226 
-1.798120 0.164244 -18.381977 23.402725 -61.540459 -8.667212 -178.592911 17.272972 3.742699 -11.658010 -0.487839 4.509122 9.149440 4.385202 -10.322896 2.020452 17.257689 114.916359 47.876820 -27.438347 -135.640472 -94.378334 -48.375248 -156.133682 -74.423958 21.017609 18.395042 -22.938084 -9.549131 -7.208256 35.225002 36.156250 -66.223557 42.152893 -52.616116 45.898407 -92.460617 -67.629036 102.447685 8.736225 0.878810 -7.997305 -91.534172 -19.373161 17.344078 70.062454 30.840834 78.342949 -177.445084 -41.134830 -103.674210 -146.058563 1.702907 7.570605 79.777374 3.791769 -22.673344 34.756523 -19.984341 9.029169 -24.633516 10.736760 -91.723145 -5.149762 0.463318 -125.602844 
-2.232969 0.989026 -23.070297 28.686844 -61.501221 -13.613005 178.394516 18.330456 2.929536 -7.403301 -7.555436 5.802963 9.987974 5.487110 -9.044217 3.467135 17.475645 115.453880 51.800095 -25.208172 -138.171875 -87.905724 -46.553421 -162.856720 -69.710396 23.363052 17.741419 -22.052778 -7.581223 -8.369488 35.840107 38.174950 -62.536499 28.025951 -57.000492 55.290920 -81.600281 -61.022247 104.621155 2.589345 0.696594 -7.468682 -87.484497 -20.364971 12.040499 74.378990 26.011641 81.362961 -174.709656 -39.058582 -102.686325 -148.466278 -0.617119 5.456891 75.706917 0.383417 -26.109867 38.570690 -20.542816 7.432444 -27.166521 17.308775 -90.322609 -0.439449 0.158391 -132.932434 
